<?xml version="1.0" standalone="no"?>
<!DOCTYPE svg PUBLIC "-//W3C//DTD SVG 20010904//EN"
 "http://www.w3.org/TR/2001/REC-SVG-20010904/DTD/svg10.dtd">
<svg version="1.0" xmlns="http://www.w3.org/2000/svg"
 width="700.000000pt" height="700.000000pt" viewBox="0 0 700.000000 700.000000"
 preserveAspectRatio="xMidYMid meet">
<metadata>
Created by potrace 1.11, written by Peter Selinger 2001-2013
</metadata>
<g transform="translate(0.000000,700.000000) scale(0.100000,-0.100000)"
fill="#000000" stroke="none">
<path d="M2310 4964 c-358 -30 -638 -114 -872 -260 -433 -271 -680 -762 -655
-1304 23 -480 235 -870 604 -1111 329 -214 746 -293 1253 -238 180 20 378 65
523 119 44 17 57 26 57 42 0 18 -86 485 -95 514 -2 8 -32 2 -87 -18 -206 -74
-474 -109 -669 -89 -411 43 -705 277 -800 637 -30 114 -37 320 -14 439 68 362
317 607 695 685 93 19 126 21 290 17 212 -6 333 -27 470 -82 46 -19 85 -33 86
-32 4 7 124 518 124 530 0 29 -254 102 -455 130 -111 16 -372 28 -455 21z"/>
<path d="M4737 4959 c-657 -63 -1135 -512 -1274 -1197 -28 -136 -25 -501 5
-639 61 -279 168 -481 356 -669 226 -226 504 -353 886 -405 214 -29 632 -10
883 42 205 41 457 120 457 143 0 17 -108 477 -113 482 -2 2 -46 -9 -97 -26
-207 -68 -446 -101 -725 -102 -319 -1 -528 58 -721 204 -140 105 -253 315
-254 470 l0 38 1027 2 1027 3 8 35 c5 19 11 98 15 175 12 287 -47 562 -173
804 -201 389 -530 600 -996 641 -128 11 -185 11 -311 -1z m319 -509 c116 -29
198 -74 274 -151 103 -103 171 -258 187 -425 l6 -64 -692 0 c-652 0 -691 1
-691 18 0 74 90 281 165 380 89 118 241 215 385 246 100 22 271 20 366 -4z"/>
</g>
</svg>
