<?xml version="1.0" encoding="utf-8"?><svg width="96" height="60" viewBox="0 0 96 60" xmlns="http://www.w3.org/2000/svg" xmlns:xlink="http://www.w3.org/1999/xlink"><svg id="brod-bijeli" viewBox="0 0 60 24" width="60" height="24" xmlns="http://www.w3.org/2000/svg"><style>.ast0{clip-path:url(#aXMLID_167_);fill:#fff}</style><g id="aXMLID_113_"><defs><path id="aXMLID_105_" d="M.5.3h59v23.4H.5z"/></defs><clipPath id="aXMLID_167_"><use xlink:href="#aXMLID_105_" overflow="visible"/></clipPath><path id="aXMLID_115_" class="ast0" d="M48 8.6c-.8 0-1.5-.7-1.5-1.6 0-.9.7-1.6 1.5-1.6s1.5.7 1.5 1.6c0 .9-.6 1.6-1.5 1.6m-6.4 0c-.8 0-1.5-.7-1.5-1.6 0-.9.7-1.6 1.5-1.6s1.5.7 1.5 1.6c0 .9-.6 1.6-1.5 1.6m-5.9 0c-.8 0-1.5-.7-1.5-1.6 0-.9.7-1.6 1.5-1.6s1.5.7 1.5 1.6c0 .9-.7 1.6-1.5 1.6m-6.3 0c-.8 0-1.5-.7-1.5-1.6 0-.9.7-1.6 1.5-1.6s1.5.7 1.5 1.6c0 .9-.7 1.6-1.5 1.6m-6.5 0H16l1.7-5.2h5.2v5.2zm36.6 2.5l-6.6-.1V3.3H33.8v-3h-1.9v2.2H17.1l-2.6 7.9-14-.2 12.4 13.6H55c0-.1 4.6-2.1 4.5-12.7"/></g></svg><svg id="check" viewBox="0 0 16 16" width="16" height="16" x="60" y="36" xmlns="http://www.w3.org/2000/svg"><style>.bst0{fill:#fff}</style><path id="bXMLID_3_" class="bst0" d="M15.8 3.8l-1.6-1.6c-.3-.3-.6-.4-.9-.1L6.1 9.2 2.7 5.9c-.2-.3-.5-.4-.8-.1L.3 7.4c-.3.3-.4.8-.2 1.1L4 12.3 5.6 14c.3.3.8.1 1-.2l1.6-1.6 7.5-7.5c.4-.3.3-.6.1-.9z"/></svg><svg id="minus" viewBox="0 0 36 36" width="36" height="36" y="24" xmlns="http://www.w3.org/2000/svg"><style>.cst0{fill:#6d6e71}.cst1{fill:#fff}</style><circle id="cXMLID_541_" class="cst0" cx="18" cy="17.9" r="16"/><path id="cXMLID_512_" class="cst1" d="M12.9 16.6h10.2V19H12.9z"/></svg><svg id="plus" viewBox="0 0 36 36" width="36" height="36" x="60" xmlns="http://www.w3.org/2000/svg"><style>.dst0{fill:#102d69}.dst1{fill:#fff}</style><circle id="dXMLID_539_" class="dst0" cx="18" cy="17.9" r="16"/><path id="dXMLID_536_" class="dst1" d="M16.9 12.7h2.4v10.2h-2.4z"/><path id="dXMLID_512_" class="dst1" d="M12.9 16.6h10.2V19H12.9z"/></svg></svg>