<?xml version="1.0" encoding="utf-8"?><svg width="516" height="170" viewBox="0 0 516 170" xmlns="http://www.w3.org/2000/svg" xmlns:xlink="http://www.w3.org/1999/xlink"><svg id="brod-bijeli" viewBox="0 0 60 24" width="60" height="24" y="78" xmlns="http://www.w3.org/2000/svg"><style>.ast0{clip-path:url(#aXMLID_167_);fill:#fff}</style><g id="aXMLID_113_"><defs><path id="aXMLID_105_" d="M.5.3h59v23.4H.5z"/></defs><clipPath id="aXMLID_167_"><use xlink:href="#aXMLID_105_" overflow="visible"/></clipPath><path id="aXMLID_115_" class="ast0" d="M48 8.6c-.8 0-1.5-.7-1.5-1.6 0-.9.7-1.6 1.5-1.6s1.5.7 1.5 1.6c0 .9-.6 1.6-1.5 1.6m-6.4 0c-.8 0-1.5-.7-1.5-1.6 0-.9.7-1.6 1.5-1.6s1.5.7 1.5 1.6c0 .9-.6 1.6-1.5 1.6m-5.9 0c-.8 0-1.5-.7-1.5-1.6 0-.9.7-1.6 1.5-1.6s1.5.7 1.5 1.6c0 .9-.7 1.6-1.5 1.6m-6.3 0c-.8 0-1.5-.7-1.5-1.6 0-.9.7-1.6 1.5-1.6s1.5.7 1.5 1.6c0 .9-.7 1.6-1.5 1.6m-6.5 0H16l1.7-5.2h5.2v5.2zm36.6 2.5l-6.6-.1V3.3H33.8v-3h-1.9v2.2H17.1l-2.6 7.9-14-.2 12.4 13.6H55c0-.1 4.6-2.1 4.5-12.7"/></g></svg><svg id="bus-bijeli" viewBox="0 0 60 32" width="60" height="32" y="102" xmlns="http://www.w3.org/2000/svg"><style>.bst0{clip-path:url(#bSVGID_2_);fill:#fff}</style><defs><path id="bSVGID_1_" d="M.3.3h59.4v31.4H.3z"/></defs><clipPath id="bSVGID_2_"><use xlink:href="#bSVGID_1_" overflow="visible"/></clipPath><path class="bst0" d="M54.1 12.8c0 1-.8 1.7-1.7 1.7h-5.7c-.9 0-1.7-.8-1.7-1.7V6.3c0-.9.8-1.7 1.7-1.7h5.7c.9 0 1.7.8 1.7 1.7v6.5zm-9.7 0c0 1-.8 1.7-1.7 1.7H37c-.9 0-1.7-.8-1.7-1.7V6.3c0-.9.8-1.7 1.7-1.7h5.7c.9 0 1.7.8 1.7 1.7v6.5zm-9.9 0c0 1-.8 1.7-1.7 1.7h-5.7c-.9 0-1.7-.8-1.7-1.7V6.3c0-.9.8-1.7 1.7-1.7h5.7c.9 0 1.7.8 1.7 1.7v6.5zm-10 0c0 1-.8 1.7-1.7 1.7h-5.7c-.9 0-1.7-.8-1.7-1.7V6.3c0-.9.8-1.7 1.7-1.7h5.7c.9 0 1.7.8 1.7 1.7v6.5zm-12.4 4.1c0 1-.8 1.7-1.7 1.7h-5c-.9 0-2.6-.8-2.6-1.7l.9-10.6c0-.9.8-1.7 1.7-1.7h5c.9 0 1.7.8 1.7 1.7v10.6zm45-14.5h-.9v-.9c0-.7-.5-1.2-1.2-1.2H31.5c-.7 0-1.2.5-1.2 1.2v.9H5.6C4.2 2.4 3 3.5 2.1 5L.3 21.2c.9 1.5 3.9 5.5 5.3 5.5h5c0-3.2 2.5-5.8 5.7-5.8s5.7 2.6 5.7 5.8h22.9c0-3.2 2.5-5.8 5.7-5.8 3.1 0 5.7 2.6 5.7 5.8h1c1.4 0 2.6-1.2 2.6-2.7V5c-.2-1.5-1.3-2.6-2.8-2.6"/><path class="bst0" d="M16.3 21.6c-2.7 0-4.9 2.3-4.9 5.1s2.2 5.1 4.9 5.1 4.9-2.3 4.9-5.1-2.2-5.1-4.9-5.1m34.2 0c-2.7 0-4.9 2.3-4.9 5.1s2.2 5.1 4.9 5.1 4.9-2.3 4.9-5.1-2.2-5.1-4.9-5.1"/></svg><svg id="check" viewBox="0 0 16 16" width="16" height="16" x="60" y="78" xmlns="http://www.w3.org/2000/svg"><style>.cst0{fill:#fff}</style><path id="cXMLID_3_" class="cst0" d="M15.8 3.8l-1.6-1.6c-.3-.3-.6-.4-.9-.1L6.1 9.2 2.7 5.9c-.2-.3-.5-.4-.8-.1L.3 7.4c-.3.3-.4.8-.2 1.1L4 12.3 5.6 14c.3.3.8.1 1-.2l1.6-1.6 7.5-7.5c.4-.3.3-.6.1-.9z"/></svg><svg id="croatiaexcursion-logo" viewBox="0 0 516 78" width="516" height="78" xmlns="http://www.w3.org/2000/svg"><style>.dst0{fill:#ffcb00}.dst1{fill:#102d69}.dst2{fill:#0069b3}</style><path id="dXMLID_37_" class="dst0" d="M0 0h516v78H0z"/><g id="dXMLID_274_"><path id="dXMLID_275_" class="dst1" d="M55.2 53.6C54 54.2 51 55 47.3 55 36.6 55 31 48.2 31 39.4 31 28.9 38.6 23 48 23c3.6 0 6.4.7 7.6 1.3l-1.5 5.6c-1.4-.6-3.4-1.1-5.9-1.1-5.5 0-9.8 3.4-9.8 10.3 0 6.2 3.7 10.1 9.9 10.1 2.2 0 4.5-.4 5.9-1l1 5.4z"/><path id="dXMLID_277_" class="dst1" d="M58.5 39.4c0-3.3 0-5.5-.2-7.4h6l.3 4.2h.2c1.2-3.3 3.9-4.7 6.1-4.7.6 0 1 0 1.5.1v6.6c-.6-.1-1.1-.2-1.9-.2-2.6 0-4.3 1.3-4.8 3.5-.1.5-.1 1-.1 1.6v11.4h-7V39.4z"/><path id="dXMLID_279_" class="dst1" d="M85.8 55c-6.6 0-11.6-4.3-11.6-11.6S79 31.5 86.3 31.5c6.9 0 11.5 4.7 11.5 11.5-.1 8.2-5.9 12-12 12zm.2-5c2.8 0 4.5-2.7 4.5-6.8 0-3.3-1.3-6.7-4.5-6.7-3.3 0-4.6 3.4-4.6 6.8 0 3.8 1.6 6.7 4.6 6.7z"/><path id="dXMLID_282_" class="dst1" d="M120.3 49.1c0 2.1.1 4.2.4 5.4h-6.3l-.4-2.3h-.1c-1.5 1.8-3.8 2.8-6.4 2.8-4.6 0-7.3-3.3-7.3-6.9 0-5.8 5.2-8.6 13.2-8.6v-.3c0-1.2-.6-2.9-4.1-2.9-2.3 0-4.7.8-6.2 1.7l-1.3-4.5c1.6-.9 4.6-2 8.7-2 7.5 0 9.8 4.4 9.8 9.7v7.9zm-6.8-5.2c-3.7 0-6.5.9-6.5 3.5 0 1.8 1.2 2.7 2.8 2.7 1.7 0 3.2-1.1 3.6-2.6.1-.4.1-.8.1-1.2v-2.4z"/><path id="dXMLID_285_" class="dst1" d="M132.9 25.9V32h5v5.2h-5v8.1c0 2.7.7 4 2.8 4 1 0 1.4 0 2.1-.2v5.3c-.9.3-2.6.6-4.5.6-2.3 0-4.1-.8-5.3-1.9-1.3-1.3-1.9-3.5-1.9-6.7v-9.2h-3V32h3v-4.2l6.8-1.9z"/><path id="dXMLID_287_" class="dst1" d="M145.2 29.2c-2.2 0-3.6-1.6-3.6-3.5 0-2 1.5-3.5 3.7-3.5s3.6 1.5 3.7 3.5c0 2-1.5 3.5-3.8 3.5zm-3.4 25.3V32h7v22.5h-7z"/><path id="dXMLID_290_" class="dst1" d="M172.6 49.1c0 2.1.1 4.2.4 5.4h-6.3l-.4-2.3h-.1c-1.5 1.8-3.8 2.8-6.4 2.8-4.6 0-7.3-3.3-7.3-6.9 0-5.8 5.2-8.6 13.2-8.6v-.3c0-1.2-.6-2.9-4.1-2.9-2.3 0-4.7.8-6.2 1.7l-1.3-4.5c1.6-.9 4.6-2 8.7-2 7.5 0 9.8 4.4 9.8 9.7v7.9zm-6.8-5.2c-3.7 0-6.5.9-6.5 3.5 0 1.8 1.2 2.7 2.8 2.7 1.7 0 3.2-1.1 3.6-2.6.1-.4.1-.8.1-1.2v-2.4z"/><path id="dXMLID_293_" class="dst1" d="M196.3 41.4h-11.4v7.4h12.7v5.8h-19.7v-31H197v5.8h-12.1v6.4h11.4v5.6z"/><path id="dXMLID_295_" class="dst1" d="M207.7 32l2.2 3.8c.6 1.1 1.2 2.3 1.8 3.4h.1c.6-1.2 1.2-2.3 1.7-3.5l2-3.6h7.6l-7.4 10.7 7.5 11.8h-7.9l-2.3-4c-.6-1.1-1.2-2.3-1.7-3.5h-.1c-.6 1.2-1.1 2.3-1.7 3.5l-2.1 4h-7.7l7.6-11.5-7.5-11h7.9z"/><path id="dXMLID_297_" class="dst1" d="M241.9 53.9c-1.2.6-3.6 1.1-6.3 1.1-7.3 0-11.9-4.5-11.9-11.5 0-6.5 4.5-11.9 12.9-11.9 1.8 0 3.9.3 5.3.9l-1.1 5.2c-.8-.4-2.1-.7-3.9-.7-3.7 0-6.1 2.6-6 6.3 0 4.1 2.8 6.3 6.2 6.3 1.7 0 2.9-.3 4-.7l.8 5z"/><path id="dXMLID_299_" class="dst1" d="M266.4 47.3c0 2.9.1 5.3.2 7.2h-6.1l-.3-3.2h-.2c-.9 1.4-3 3.7-7 3.7-4.6 0-7.9-2.9-7.9-9.8V32h7v12.1c0 3.3 1.1 5.2 3.5 5.2 1.9 0 3.1-1.3 3.5-2.4.2-.4.3-.9.3-1.5V32h7v15.3z"/><path id="dXMLID_301_" class="dst1" d="M271.5 39.4c0-3.3 0-5.5-.2-7.4h6l.3 4.2h.2c1.2-3.3 3.9-4.7 6.1-4.7.6 0 1 0 1.5.1v6.6c-.6-.1-1.1-.2-1.9-.2-2.6 0-4.3 1.3-4.8 3.5-.1.5-.1 1-.1 1.6v11.4h-7V39.4z"/><path id="dXMLID_303_" class="dst1" d="M288.6 48.4c1.3.8 4 1.7 6 1.7 2.1 0 3-.7 3-1.8s-.7-1.7-3.3-2.6c-4.7-1.6-6.5-4.1-6.4-6.7 0-4.2 3.6-7.4 9.2-7.4 2.6 0 4.9.6 6.3 1.3l-1.2 4.8c-1-.5-3-1.2-4.9-1.2-1.7 0-2.7.7-2.7 1.8s.9 1.7 3.6 2.6c4.3 1.5 6 3.6 6.1 6.9 0 4.2-3.3 7.3-9.7 7.3-2.9 0-5.6-.7-7.3-1.6l1.3-5.1z"/><path id="dXMLID_305_" class="dst1" d="M311.5 29.2c-2.2 0-3.6-1.6-3.6-3.5 0-2 1.5-3.5 3.7-3.5s3.6 1.5 3.7 3.5c0 2-1.4 3.5-3.8 3.5zm-3.4 25.3V32h7v22.5h-7z"/><path id="dXMLID_308_" class="dst1" d="M330.5 55c-6.6 0-11.6-4.3-11.6-11.6s4.8-11.9 12.1-11.9c6.9 0 11.5 4.7 11.5 11.5-.2 8.2-6 12-12 12zm.2-5c2.8 0 4.5-2.7 4.5-6.8 0-3.3-1.3-6.7-4.5-6.7-3.3 0-4.6 3.4-4.6 6.8 0 3.8 1.6 6.7 4.6 6.7z"/><path id="dXMLID_311_" class="dst1" d="M346.2 39.2c0-2.8-.1-5.2-.2-7.2h6.1l.3 3.1h.1c.9-1.5 3.2-3.6 6.9-3.6 4.6 0 8.1 3.1 8.1 9.7v13.3h-7V42c0-2.9-1-4.9-3.5-4.9-1.9 0-3.1 1.3-3.6 2.6-.2.5-.2 1.1-.2 1.7v13h-7V39.2z"/><path id="dXMLID_313_" class="dst1" d="M372.5 48.4c1.3.8 4 1.7 6 1.7 2.1 0 3-.7 3-1.8s-.7-1.7-3.3-2.6c-4.7-1.6-6.5-4.1-6.4-6.7 0-4.2 3.6-7.4 9.2-7.4 2.6 0 4.9.6 6.3 1.3l-1.2 4.8c-1-.5-3-1.2-4.9-1.2-1.7 0-2.7.7-2.7 1.8s.9 1.7 3.6 2.6c4.3 1.5 6 3.6 6.1 6.9 0 4.2-3.3 7.3-9.7 7.3-2.9 0-5.6-.7-7.3-1.6l1.3-5.1z"/><path id="dXMLID_315_" class="dst2" d="M395.8 55c-2.3 0-4-1.8-4-4.2 0-2.5 1.7-4.3 4.1-4.3 2.4 0 4 1.7 4.1 4.3 0 2.4-1.7 4.2-4.2 4.2z"/><path id="dXMLID_317_" class="dst2" d="M420.6 53.9c-1.2.6-3.6 1.1-6.3 1.1-7.3 0-11.9-4.5-11.9-11.5 0-6.5 4.5-11.9 12.9-11.9 1.8 0 3.9.3 5.3.9l-1.1 5.2c-.8-.4-2.1-.7-3.9-.7-3.7 0-6.1 2.6-6 6.3 0 4.1 2.8 6.3 6.2 6.3 1.7 0 2.9-.3 4-.7l.8 5z"/><path id="dXMLID_319_" class="dst2" d="M434.1 55c-6.6 0-11.6-4.3-11.6-11.6s4.8-11.9 12.1-11.9c6.9 0 11.5 4.7 11.5 11.5-.1 8.2-5.9 12-12 12zm.2-5c2.8 0 4.5-2.7 4.5-6.8 0-3.3-1.3-6.7-4.5-6.7-3.3 0-4.6 3.4-4.6 6.8 0 3.8 1.6 6.7 4.6 6.7z"/><path id="dXMLID_322_" class="dst2" d="M449.8 39.2c0-2.8-.1-5.2-.2-7.2h5.9l.3 3.1h.1c1-1.5 3-3.6 6.8-3.6 2.9 0 5.2 1.5 6.2 3.9h.1c.9-1.2 1.8-2.1 2.9-2.8 1.2-.7 2.6-1.1 4.3-1.1 4.3 0 7.6 3 7.6 9.8v13.2H477V42.3c0-3.3-1.1-5.2-3.3-5.2-1.7 0-2.8 1.1-3.3 2.4-.1.5-.2 1.2-.2 1.7v13.2h-6.8V41.9c0-2.8-1-4.7-3.3-4.7-1.8 0-2.9 1.4-3.3 2.5-.2.6-.3 1.2-.3 1.8v13.1h-6.8V39.2z"/></g></svg><svg id="minus" viewBox="0 0 36 36" width="36" height="36" y="134" xmlns="http://www.w3.org/2000/svg"><style>.est0{fill:#6d6e71}.est1{fill:#fff}</style><circle id="eXMLID_541_" class="est0" cx="18" cy="17.9" r="16"/><path id="eXMLID_512_" class="est1" d="M12.9 16.6h10.2V19H12.9z"/></svg><svg id="plus" viewBox="0 0 36 36" width="36" height="36" x="36" y="134" xmlns="http://www.w3.org/2000/svg"><style>.fst0{fill:#102d69}.fst1{fill:#fff}</style><circle id="fXMLID_539_" class="fst0" cx="18" cy="17.9" r="16"/><path id="fXMLID_536_" class="fst1" d="M16.9 12.7h2.4v10.2h-2.4z"/><path id="fXMLID_512_" class="fst1" d="M12.9 16.6h10.2V19H12.9z"/></svg></svg>