<?xml version="1.0" encoding="utf-8"?><svg width="536" height="318" viewBox="0 0 536 318" xmlns="http://www.w3.org/2000/svg" xmlns:xlink="http://www.w3.org/1999/xlink"><svg version="1.1" id="boat-bijeli" x="376" y="154" viewBox="-10 -10 50 36" xml:space="preserve" width="50" height="36" xmlns="http://www.w3.org/2000/svg"><style>.ast0{fill:#fff}</style><path class="ast0" d="M27.2 10.1H12.5c-.8 0-1.4-.6-1.4-1.4 0-1-.8-1.8-1.8-1.8H2.7c-.5 0-.9.5-.6 1l4.1 7.2h19.6l2.1-4.3c0-.4-.3-.7-.7-.7zM6.8 11c-.6 0-1.1-.5-1.1-1.1 0-.6.5-1.1 1.1-1.1.6-.1 1.2.4 1.2 1 0 .7-.6 1.2-1.2 1.2zm4.8-2.8c0 .8.7 1.4 1.4 1.4h9.1V5.3c0-.4-.3-.7-.7-.7h-5.2V0h-.9l-.5 1.8H8.4v.5h.8l-.8 3.6-.1.5h1.5c1 0 1.8.8 1.8 1.8zM20 5.9c.6 0 1 .5 1 1 0 .6-.5 1-1 1s-1-.5-1-1c-.1-.5.4-1 1-1zm-3 0c.6 0 1 .5 1 1 0 .6-.5 1-1 1-.6 0-1-.5-1-1s.5-1 1-1zm-2.9 0c.6 0 1 .5 1 1 0 .6-.5 1-1 1-.6 0-1-.5-1-1s.4-1 1-1zM9.7 2.7h2.1l.3 3.1H9l.7-3.1z"/></svg><svg version="1.1" id="bus-bijeli" x="426" y="154" viewBox="-10 -10 50 36" xml:space="preserve" width="50" height="36" xmlns="http://www.w3.org/2000/svg"><style>.bst0{fill:#fff}</style><g id="bXMLID_2_"><path id="bXMLID_10_" class="bst0" d="M25.5 7.1c0 .4-.4.8-.8.8h-2.5c-.4 0-.8-.4-.8-.8V4.2c0-.4.4-.8.8-.8h2.5c.4 0 .8.4.8.8v2.9zm-4.3 0c0 .4-.4.8-.8.8h-2.5c-.4 0-.8-.4-.8-.8V4.2c0-.4.4-.8.8-.8h2.5c.4 0 .8.4.8.8v2.9zm-4.4 0c0 .4-.4.8-.8.8h-2.5c-.4 0-.8-.4-.8-.8V4.2c0-.4.4-.8.8-.8H16c.4 0 .8.4.8.8v2.9zm-4.4 0c0 .4-.4.8-.8.8H9.1c-.4 0-.8-.4-.8-.8V4.2c0-.4.4-.8.8-.8h2.5c.4 0 .8.4.8.8v2.9zM6.9 8.9c0 .4-.4.8-.8.8H3.9c-.4 0-1.2-.4-1.2-.8l.4-4.7c0-.4.4-.8.8-.8h2.2c.4 0 .8.4.8.8v4.7zm20-6.4h-.4v-.4c0-.3-.2-.5-.5-.5H15.5c-.3 0-.5.2-.5.5v.4H4c-.6 0-1.2.5-1.6 1.1l-.8 7.2c.4.7 1.8 2.5 2.4 2.5h2.2c0-1.4 1.1-2.6 2.5-2.6s2.5 1.2 2.5 2.6h10.2c0-1.4 1.1-2.6 2.5-2.6s2.5 1.2 2.5 2.6h.6c.6 0 1.2-.5 1.2-1.2V3.6c-.2-.6-.7-1.1-1.3-1.1"/><path id="bXMLID_7_" class="bst0" d="M8.7 11c-1.2 0-2.2 1-2.2 2.3s1 2.3 2.2 2.3 2.2-1 2.2-2.3-1-2.3-2.2-2.3"/><path id="bXMLID_4_" class="bst0" d="M23.9 11c-1.2 0-2.2 1-2.2 2.3s1 2.3 2.2 2.3c1.2 0 2.2-1 2.2-2.3s-1-2.3-2.2-2.3"/></g></svg><svg id="but-menu" viewBox="-10 -10 36 36" width="36" height="36" x="356" y="206" xmlns="http://www.w3.org/2000/svg"><style>.cst0{fill:#102d69}</style><path id="cXMLID_3_" class="cst0" d="M0 0h16v3H0z"/><path id="cXMLID_6_" class="cst0" d="M0 13h16v3H0z"/><path id="cXMLID_611_" class="cst0" d="M0 6.5h16v3H0z"/></svg><svg id="but-menu-close" viewBox="-10 -10 36 36" width="36" height="36" x="392" y="206" xmlns="http://www.w3.org/2000/svg"><style>.dst0{fill:#4d4d4d}</style><path id="dXMLID_4_" class="dst0" d="M14.5 3.4l-2.1-2.2-4.6 4.6-4.6-4.6-2.1 2.2L5.7 8l-4.6 4.6 2.1 2.1 4.6-4.6 4.6 4.6 2.1-2.1L9.9 8z"/></svg><svg version="1.1" id="calendar" y="98" viewBox="-10 -10 220 220" xml:space="preserve" width="220" height="220" xmlns="http://www.w3.org/2000/svg"><style>.est0{fill:#b5e6fb}</style><path class="est0" d="M173.1 22.8h-10.8V38c0 8.7-7.1 15.8-15.8 15.8-8.7 0-15.8-7.1-15.8-15.8V22.8h-63V38c0 8.7-7.1 15.8-15.8 15.8-8.7 0-15.8-7.1-15.8-15.8V22.8H25.3c-6.2 0-11.2 5-11.2 11.2v147.7c0 6.2 5 11.2 11.2 11.2H173c6.2 0 11.2-5 11.2-11.2V33.9c0-6.1-5-11.1-11.1-11.1zm-105.4 143H36.1v-21.4h31.6v21.4zm0-32.8H36.1v-21.4h31.6V133zm0-35.2H36.1V76.3h31.6v21.5zm47.3 68H83.4v-21.4H115v21.4zm0-32.8H83.4v-21.4H115V133zm0-35.2H83.4V76.3H115v21.5zm47.3 68h-31.6v-21.4h31.6v21.4zm0-32.8h-31.6v-21.4h31.6V133zm0-35.2h-31.6V76.3h31.6v21.5zm-25.5-60.6V15.9c0-5.4 4.4-9.7 9.7-9.7 5.4 0 9.7 4.4 9.7 9.7v21.4c0 5.4-4.4 9.7-9.7 9.7-5.4 0-9.7-4.4-9.7-9.8zm-94.7 0V15.9c0-5.4 4.4-9.7 9.7-9.7 5.4 0 9.7 4.4 9.7 9.7v21.4c0 5.4-4.4 9.7-9.7 9.7-5.3 0-9.7-4.4-9.7-9.8z"/></svg><svg version="1.1" id="calendar-tplava" x="332" y="98" viewBox="-10 -10 52 52" xml:space="preserve" width="52" height="52" xmlns="http://www.w3.org/2000/svg"><style>.fst0{fill:#102d69}</style><path class="fst0" d="M27.4 4h-1.6v2.3c0 1.3-1.1 2.4-2.4 2.4-1.3 0-2.4-1.1-2.4-2.4V4h-9.6v2.3c0 1.3-1.1 2.4-2.4 2.4-1.3 0-2.4-1.1-2.4-2.4V4H4.9c-1 0-1.7.8-1.7 1.7v22.6c0 .9.8 1.7 1.7 1.7h22.6c.9 0 1.7-.8 1.7-1.7V5.7c-.1-.9-.8-1.7-1.8-1.7zM11.3 25.9H6.5v-3.3h4.8v3.3zm0-5H6.5v-3.3h4.8v3.3zm0-5.4H6.5v-3.3h4.8v3.3zm7.3 10.4h-4.8v-3.3h4.8v3.3zm0-5h-4.8v-3.3h4.8v3.3zm0-5.4h-4.8v-3.3h4.8v3.3zm7.2 10.4H21v-3.3h4.8v3.3zm0-5H21v-3.3h4.8v3.3zm0-5.4H21v-3.3h4.8v3.3zm-3.9-9.3V3c0-.8.7-1.5 1.5-1.5s1.5.7 1.5 1.5v3.3c0 .8-.7 1.5-1.5 1.5-.8-.1-1.5-.7-1.5-1.6zm-14.5 0V3c0-.8.7-1.5 1.5-1.5s1.5.7 1.5 1.5v3.3c0 .8-.7 1.5-1.5 1.5-.8-.1-1.5-.7-1.5-1.6z"/></svg><svg version="1.1" id="car-bijeli" x="476" y="154" viewBox="-10 -10 50 36" xml:space="preserve" width="50" height="36" xmlns="http://www.w3.org/2000/svg"><style>.gst0{fill:#fff}</style><path class="gst0" d="M10.3 12.5c0 1.5-1.2 2.7-2.7 2.7S4.9 14 4.9 12.5s1.2-2.7 2.7-2.7 2.7 1.2 2.7 2.7zm16.1-3.6v3.2c0 .5-.4.9-.9.9h-.6v-.5c0-1.8-1.5-3.3-3.3-3.3-1.8 0-3.3 1.5-3.3 3.3v.5h-7.4v-.5c0-1.8-1.5-3.3-3.3-3.3-1.8 0-3.3 1.5-3.3 3.3v.5h-.8c-.5 0-.9-.4-.9-.9v-1.5C2.6 9.2 3.7 8 5.1 8l3.2-.1 2.9-4c.4-.6 1.1-.9 1.8-.9h6.7c.9 0 1.6.7 1.8 1.6l.1.3.1.6c.3 1.2 1.3 1.9 2.4 1.9H24.9c.9 0 1.5.6 1.5 1.5zM16 3.8h-2.8c-.5 0-.9.2-1.2.6L9.8 7.6H16V3.8zm4.7 3.8l-.6-3c-.1-.4-.5-.8-1.1-.8h-2v3.8h3.7zm.9 2.2c-1.5 0-2.7 1.2-2.7 2.7s1.2 2.7 2.7 2.7c1.5 0 2.7-1.2 2.7-2.7s-1.2-2.7-2.7-2.7z"/></svg><svg id="check" viewBox="-10 -10 36 36" width="36" height="36" x="428" y="206" xmlns="http://www.w3.org/2000/svg"><style>.hst0{fill:#fff}</style><path id="hXMLID_3_" class="hst0" d="M15.8 3.8l-1.6-1.6c-.3-.3-.6-.4-.9-.1L6.1 9.2 2.7 5.9c-.2-.3-.5-.4-.8-.1L.3 7.4c-.3.3-.4.8-.2 1.1L4 12.3 5.6 14c.3.3.8.1 1-.2l1.6-1.6 7.5-7.5c.4-.3.3-.6.1-.9z"/></svg><svg version="1.1" id="check-plavi" x="314" y="206" viewBox="-10 -10 42 40" xml:space="preserve" width="42" height="40" xmlns="http://www.w3.org/2000/svg"><style>.ist0{fill:#003965}</style><path id="iXMLID_694_" class="ist0" d="M18 2.8l-9 9-4.2-4.2c-.3-.3-.7-.4-1-.1L1.7 9.6c-.3.3-.5.9-.2 1.3l4.8 4.8 2.1 2.1c.3.3 1 .1 1.3-.2l2.1-2.1L21.3 6c.3-.3.2-.7-.1-1l-2.1-2c-.3-.4-.8-.5-1.1-.2z"/></svg><svg id="contact-skype" viewBox="-10 -10 52 52" width="52" height="52" x="384" y="98" xmlns="http://www.w3.org/2000/svg"><style>.jst0{fill:#00aff0}.jst1{fill:#fff}</style><path id="jXMLID_6_" class="jst0" d="M13.3 1.3c-.1 0-.1-.1-.2-.1h-.2l.4.1z"/><path id="jXMLID_5_" class="jst0" d="M1.3 13.2v.2c0 .1.1.1.1.2l-.1-.4z"/><path id="jXMLID_4_" class="jst0" d="M30.7 18.8v-.2s-.1-.1-.1-.2l.1.4z"/><path id="jXMLID_3_" class="jst0" d="M18.5 30.6c.1 0 .1.1.2.1h.2l-.4-.1z"/><path class="jst0" d="M30.8 18.6v.2l-.1-.3s0 .1.1.1c.2-.9.2-1.8.2-2.7 0-2-.4-4-1.2-5.8-.8-1.8-1.8-3.4-3.2-4.8-1.4-1.4-3-2.5-4.8-3.2C20 1.3 18 .9 16 .9c-1 0-1.9.1-2.8.3.1 0 .1.1.2.1h-.3.2C12 .6 10.6.3 9.1.3c-2.4 0-4.6.9-6.3 2.6C1 4.4.1 6.7.1 9c0 1.5.4 3 1.1 4.3v-.2l.1.3s-.1-.1-.1-.2c-.1 1-.2 1.9-.2 2.7 0 2 .4 4 1.2 5.8.8 1.8 1.8 3.4 3.2 4.8s3 2.5 4.8 3.2c1.8.8 3.8 1.2 5.8 1.2.9 0 1.8-.1 2.6-.2-.1 0-.1-.1-.2-.1l.3.1h-.2c1.3.8 2.8 1.2 4.4 1.2 2.4 0 4.6-.9 6.3-2.6 1.7-1.7 2.6-3.9 2.6-6.3.1-1.5-.3-3-1-4.4z"/><path class="jst1" d="M16.1 25.1c-5.3 0-7.7-2.6-7.7-4.6 0-1 .7-1.7 1.8-1.7 2.3 0 1.7 3.3 5.9 3.3 2.2 0 3.4-1.2 3.4-2.4 0-.7-.4-1.5-1.8-1.9L13 16.6c-3.8-1-4.5-3-4.5-5 0-4 3.8-5.5 7.4-5.5 3.3 0 7.1 1.8 7.1 4.2 0 1-.9 1.6-1.9 1.6-1.9 0-1.6-2.7-5.5-2.7-1.9 0-3 .9-3 2.1 0 1.3 1.5 1.7 2.9 2l3.5.8c3.8.9 4.8 3.1 4.8 5.2-.1 3.4-2.7 5.8-7.7 5.8z"/></svg><svg id="contact-viber" viewBox="-10 -10 52 52" width="52" height="52" x="436" y="98" xmlns="http://www.w3.org/2000/svg"><style>.kst0{fill:#7b519d}.kst1{fill:#fff}</style><path id="kXMLID_5_" class="kst0" d="M4 0h24c2.2 0 4 1.8 4 4v24c0 2.2-1.8 4-4 4H4c-2.2 0-4-1.8-4-4V4c0-2.2 1.8-4 4-4z"/><g id="kXMLID_7_"><path id="kXMLID_10_" class="kst1" d="M26.4 21.6c-.8-.6-1.6-1.2-2.4-1.7-1.6-1.1-3.1-1.2-4.3.6-.7 1-1.6 1.1-2.6.6-2.7-1.2-4.8-3.1-6-5.9-.5-1.2-.5-2.3.7-3.2.7-.5 1.3-1 1.3-2 0-1.2-3.2-5.6-4.4-6-.5-.2-1-.2-1.5 0-2.9 1-4.1 3.4-3 6.2 3.4 8.5 9.5 14.4 17.9 18 .5.2 1 .3 1.3.4 1.9 0 4.1-1.8 4.8-3.6.5-1.9-.8-2.6-1.8-3.4zM17 4.8c6.1.9 8.9 3.8 9.7 10 .1.6-.1 1.4.7 1.4.8 0 .6-.8.7-1.4.1-5.8-5-11.2-10.8-11.4-.4.1-1.4-.3-1.4.7-.2.8.6.7 1.1.7z"/><path id="kXMLID_2_" class="kst1" d="M18.2 6.5c-.6-.1-1.4-.3-1.5.5-.1.9.7.8 1.3.9 3.8.8 5.1 2.2 5.7 6 .1.5-.1 1.4.8 1.3.7-.1.4-.8.5-1.3 0-3.7-3-6.9-6.8-7.4z"/><path id="kXMLID_1_" class="kst1" d="M18.5 9.5c-.4 0-.8.1-.9.5-.2.6.2.8.7.9 1.5.2 2.4 1.2 2.5 2.7 0 .4.3.8.7.7.6-.1.6-.6.6-1 .1-1.9-1.9-3.9-3.6-3.8z"/></g></svg><svg id="contact-whatsup" viewBox="-10 -10 52 52" width="52" height="52" x="220" y="154" xmlns="http://www.w3.org/2000/svg"><style>.lst0{fill:#25d366}.lst1{fill-rule:evenodd;clip-rule:evenodd;fill:#fff}</style><path id="lXMLID_515_" class="lst0" d="M29.1 32H2.9C1.3 32 0 30.7 0 29.1V2.9C0 1.3 1.3 0 2.9 0h26.2C30.7 0 32 1.3 32 2.9v26.2c0 1.6-1.3 2.9-2.9 2.9z"/><g id="lWA_Logo_1_"><g id="lXMLID_40_"><path id="lXMLID_41_" class="lst1" d="M24.5 7.5C22.2 5.2 19.2 4 16 4 9.5 4 4.1 9.3 4.1 15.9c0 2.1.5 4.2 1.6 6L4 28l6.3-1.7c1.7.9 3.7 1.5 5.7 1.5 6.6 0 11.9-5.3 11.9-11.9.1-3.2-1.2-6.2-3.4-8.4zm-8.4 18.3c-1.8 0-3.5-.5-5-1.4l-.4-.2-3.7 1 1-3.7-.2-.4c-1-1.6-1.5-3.4-1.5-5.3 0-5.5 4.4-9.9 9.9-9.9 2.6 0 5.1 1 7 2.9 1.9 1.9 2.9 4.4 2.9 7-.1 5.6-4.6 10-10 10zm5.4-7.4c-.3-.1-1.8-.9-2-1-.3-.1-.5-.1-.7.1-.2.3-.8 1-.9 1.2-.2.2-.3.2-.6.1s-1.3-.5-2.4-1.5c-.9-.8-1.5-1.8-1.7-2.1-.2-.3 0-.5.1-.6.1-.1.3-.3.4-.5s.2-.3.3-.5c.1-.2 0-.4 0-.5-.1-.1-.7-1.6-.9-2.2-.2-.6-.5-.5-.7-.5h-.6c-.2 0-.5.1-.8.4-.3.3-1 1-1 2.5s1.1 2.9 1.2 3.1c.1.2 2.1 3.2 5.1 4.5.7.3 1.3.5 1.7.6.7.2 1.4.2 1.9.1.6-.1 1.8-.7 2-1.4.2-.7.2-1.3.2-1.4s-.3-.3-.6-.4z"/></g></g></svg><svg id="croatiaexcursion-logo" viewBox="-10 -10 536 98" width="536" height="98" xmlns="http://www.w3.org/2000/svg"><style>.mst0{fill:#ffcb00}.mst1{fill:#102d69}.mst2{fill:#0069b3}</style><path id="mXMLID_37_" class="mst0" d="M0 0h516v78H0z"/><g id="mXMLID_274_"><path id="mXMLID_275_" class="mst1" d="M55.2 53.6C54 54.2 51 55 47.3 55 36.6 55 31 48.2 31 39.4 31 28.9 38.6 23 48 23c3.6 0 6.4.7 7.6 1.3l-1.5 5.6c-1.4-.6-3.4-1.1-5.9-1.1-5.5 0-9.8 3.4-9.8 10.3 0 6.2 3.7 10.1 9.9 10.1 2.2 0 4.5-.4 5.9-1l1 5.4z"/><path id="mXMLID_277_" class="mst1" d="M58.5 39.4c0-3.3 0-5.5-.2-7.4h6l.3 4.2h.2c1.2-3.3 3.9-4.7 6.1-4.7.6 0 1 0 1.5.1v6.6c-.6-.1-1.1-.2-1.9-.2-2.6 0-4.3 1.3-4.8 3.5-.1.5-.1 1-.1 1.6v11.4h-7V39.4z"/><path id="mXMLID_279_" class="mst1" d="M85.8 55c-6.6 0-11.6-4.3-11.6-11.6S79 31.5 86.3 31.5c6.9 0 11.5 4.7 11.5 11.5-.1 8.2-5.9 12-12 12zm.2-5c2.8 0 4.5-2.7 4.5-6.8 0-3.3-1.3-6.7-4.5-6.7-3.3 0-4.6 3.4-4.6 6.8 0 3.8 1.6 6.7 4.6 6.7z"/><path id="mXMLID_282_" class="mst1" d="M120.3 49.1c0 2.1.1 4.2.4 5.4h-6.3l-.4-2.3h-.1c-1.5 1.8-3.8 2.8-6.4 2.8-4.6 0-7.3-3.3-7.3-6.9 0-5.8 5.2-8.6 13.2-8.6v-.3c0-1.2-.6-2.9-4.1-2.9-2.3 0-4.7.8-6.2 1.7l-1.3-4.5c1.6-.9 4.6-2 8.7-2 7.5 0 9.8 4.4 9.8 9.7v7.9zm-6.8-5.2c-3.7 0-6.5.9-6.5 3.5 0 1.8 1.2 2.7 2.8 2.7 1.7 0 3.2-1.1 3.6-2.6.1-.4.1-.8.1-1.2v-2.4z"/><path id="mXMLID_285_" class="mst1" d="M132.9 25.9V32h5v5.2h-5v8.1c0 2.7.7 4 2.8 4 1 0 1.4 0 2.1-.2v5.3c-.9.3-2.6.6-4.5.6-2.3 0-4.1-.8-5.3-1.9-1.3-1.3-1.9-3.5-1.9-6.7v-9.2h-3V32h3v-4.2l6.8-1.9z"/><path id="mXMLID_287_" class="mst1" d="M145.2 29.2c-2.2 0-3.6-1.6-3.6-3.5 0-2 1.5-3.5 3.7-3.5s3.6 1.5 3.7 3.5c0 2-1.5 3.5-3.8 3.5zm-3.4 25.3V32h7v22.5h-7z"/><path id="mXMLID_290_" class="mst1" d="M172.6 49.1c0 2.1.1 4.2.4 5.4h-6.3l-.4-2.3h-.1c-1.5 1.8-3.8 2.8-6.4 2.8-4.6 0-7.3-3.3-7.3-6.9 0-5.8 5.2-8.6 13.2-8.6v-.3c0-1.2-.6-2.9-4.1-2.9-2.3 0-4.7.8-6.2 1.7l-1.3-4.5c1.6-.9 4.6-2 8.7-2 7.5 0 9.8 4.4 9.8 9.7v7.9zm-6.8-5.2c-3.7 0-6.5.9-6.5 3.5 0 1.8 1.2 2.7 2.8 2.7 1.7 0 3.2-1.1 3.6-2.6.1-.4.1-.8.1-1.2v-2.4z"/><path id="mXMLID_293_" class="mst1" d="M196.3 41.4h-11.4v7.4h12.7v5.8h-19.7v-31H197v5.8h-12.1v6.4h11.4v5.6z"/><path id="mXMLID_295_" class="mst1" d="M207.7 32l2.2 3.8c.6 1.1 1.2 2.3 1.8 3.4h.1c.6-1.2 1.2-2.3 1.7-3.5l2-3.6h7.6l-7.4 10.7 7.5 11.8h-7.9l-2.3-4c-.6-1.1-1.2-2.3-1.7-3.5h-.1c-.6 1.2-1.1 2.3-1.7 3.5l-2.1 4h-7.7l7.6-11.5-7.5-11h7.9z"/><path id="mXMLID_297_" class="mst1" d="M241.9 53.9c-1.2.6-3.6 1.1-6.3 1.1-7.3 0-11.9-4.5-11.9-11.5 0-6.5 4.5-11.9 12.9-11.9 1.8 0 3.9.3 5.3.9l-1.1 5.2c-.8-.4-2.1-.7-3.9-.7-3.7 0-6.1 2.6-6 6.3 0 4.1 2.8 6.3 6.2 6.3 1.7 0 2.9-.3 4-.7l.8 5z"/><path id="mXMLID_299_" class="mst1" d="M266.4 47.3c0 2.9.1 5.3.2 7.2h-6.1l-.3-3.2h-.2c-.9 1.4-3 3.7-7 3.7-4.6 0-7.9-2.9-7.9-9.8V32h7v12.1c0 3.3 1.1 5.2 3.5 5.2 1.9 0 3.1-1.3 3.5-2.4.2-.4.3-.9.3-1.5V32h7v15.3z"/><path id="mXMLID_301_" class="mst1" d="M271.5 39.4c0-3.3 0-5.5-.2-7.4h6l.3 4.2h.2c1.2-3.3 3.9-4.7 6.1-4.7.6 0 1 0 1.5.1v6.6c-.6-.1-1.1-.2-1.9-.2-2.6 0-4.3 1.3-4.8 3.5-.1.5-.1 1-.1 1.6v11.4h-7V39.4z"/><path id="mXMLID_303_" class="mst1" d="M288.6 48.4c1.3.8 4 1.7 6 1.7 2.1 0 3-.7 3-1.8s-.7-1.7-3.3-2.6c-4.7-1.6-6.5-4.1-6.4-6.7 0-4.2 3.6-7.4 9.2-7.4 2.6 0 4.9.6 6.3 1.3l-1.2 4.8c-1-.5-3-1.2-4.9-1.2-1.7 0-2.7.7-2.7 1.8s.9 1.7 3.6 2.6c4.3 1.5 6 3.6 6.1 6.9 0 4.2-3.3 7.3-9.7 7.3-2.9 0-5.6-.7-7.3-1.6l1.3-5.1z"/><path id="mXMLID_305_" class="mst1" d="M311.5 29.2c-2.2 0-3.6-1.6-3.6-3.5 0-2 1.5-3.5 3.7-3.5s3.6 1.5 3.7 3.5c0 2-1.4 3.5-3.8 3.5zm-3.4 25.3V32h7v22.5h-7z"/><path id="mXMLID_308_" class="mst1" d="M330.5 55c-6.6 0-11.6-4.3-11.6-11.6s4.8-11.9 12.1-11.9c6.9 0 11.5 4.7 11.5 11.5-.2 8.2-6 12-12 12zm.2-5c2.8 0 4.5-2.7 4.5-6.8 0-3.3-1.3-6.7-4.5-6.7-3.3 0-4.6 3.4-4.6 6.8 0 3.8 1.6 6.7 4.6 6.7z"/><path id="mXMLID_311_" class="mst1" d="M346.2 39.2c0-2.8-.1-5.2-.2-7.2h6.1l.3 3.1h.1c.9-1.5 3.2-3.6 6.9-3.6 4.6 0 8.1 3.1 8.1 9.7v13.3h-7V42c0-2.9-1-4.9-3.5-4.9-1.9 0-3.1 1.3-3.6 2.6-.2.5-.2 1.1-.2 1.7v13h-7V39.2z"/><path id="mXMLID_313_" class="mst1" d="M372.5 48.4c1.3.8 4 1.7 6 1.7 2.1 0 3-.7 3-1.8s-.7-1.7-3.3-2.6c-4.7-1.6-6.5-4.1-6.4-6.7 0-4.2 3.6-7.4 9.2-7.4 2.6 0 4.9.6 6.3 1.3l-1.2 4.8c-1-.5-3-1.2-4.9-1.2-1.7 0-2.7.7-2.7 1.8s.9 1.7 3.6 2.6c4.3 1.5 6 3.6 6.1 6.9 0 4.2-3.3 7.3-9.7 7.3-2.9 0-5.6-.7-7.3-1.6l1.3-5.1z"/><path id="mXMLID_315_" class="mst2" d="M395.8 55c-2.3 0-4-1.8-4-4.2 0-2.5 1.7-4.3 4.1-4.3 2.4 0 4 1.7 4.1 4.3 0 2.4-1.7 4.2-4.2 4.2z"/><path id="mXMLID_317_" class="mst2" d="M420.6 53.9c-1.2.6-3.6 1.1-6.3 1.1-7.3 0-11.9-4.5-11.9-11.5 0-6.5 4.5-11.9 12.9-11.9 1.8 0 3.9.3 5.3.9l-1.1 5.2c-.8-.4-2.1-.7-3.9-.7-3.7 0-6.1 2.6-6 6.3 0 4.1 2.8 6.3 6.2 6.3 1.7 0 2.9-.3 4-.7l.8 5z"/><path id="mXMLID_319_" class="mst2" d="M434.1 55c-6.6 0-11.6-4.3-11.6-11.6s4.8-11.9 12.1-11.9c6.9 0 11.5 4.7 11.5 11.5-.1 8.2-5.9 12-12 12zm.2-5c2.8 0 4.5-2.7 4.5-6.8 0-3.3-1.3-6.7-4.5-6.7-3.3 0-4.6 3.4-4.6 6.8 0 3.8 1.6 6.7 4.6 6.7z"/><path id="mXMLID_322_" class="mst2" d="M449.8 39.2c0-2.8-.1-5.2-.2-7.2h5.9l.3 3.1h.1c1-1.5 3-3.6 6.8-3.6 2.9 0 5.2 1.5 6.2 3.9h.1c.9-1.2 1.8-2.1 2.9-2.8 1.2-.7 2.6-1.1 4.3-1.1 4.3 0 7.6 3 7.6 9.8v13.2H477V42.3c0-3.3-1.1-5.2-3.3-5.2-1.7 0-2.8 1.1-3.3 2.4-.1.5-.2 1.2-.2 1.7v13.2h-6.8V41.9c0-2.8-1-4.7-3.3-4.7-1.8 0-2.9 1.4-3.3 2.5-.2.6-.3 1.2-.3 1.8v13.1h-6.8V39.2z"/></g></svg><svg version="1.1" id="home" x="220" y="206" viewBox="-10 -10 50 50" xml:space="preserve" width="50" height="50" xmlns="http://www.w3.org/2000/svg"><style>.nst0{fill:#003965}</style><path class="nst0" d="M29.1 14.8L17.2 2.9c-1.2-1.2-3.2-1.2-4.4 0L.9 14.8c-1 1-.3 2.8 1.2 2.8h3.3V29h6.5v-7.1c0-1.4 1.2-2.6 2.6-2.6h1c1.4 0 2.6 1.2 2.6 2.6V29h6.5V17.6h3.3c1.5 0 2.2-1.8 1.2-2.8z"/></svg><svg id="minus" viewBox="-10 -10 56 56" width="56" height="56" x="220" y="98" xmlns="http://www.w3.org/2000/svg"><style>.ost0{fill:#6d6e71}.ost1{fill:#fff}</style><circle id="oXMLID_541_" class="ost0" cx="18" cy="17.9" r="16"/><path id="oXMLID_512_" class="ost1" d="M12.9 16.6h10.2V19H12.9z"/></svg><svg version="1.1" id="osoba-bijela" x="488" y="98" viewBox="-10 -10 35 49" xml:space="preserve" width="35" height="49" xmlns="http://www.w3.org/2000/svg"><style>.pst0{fill:#fff}</style><path class="pst0" d="M7.4 5.1c1.1 0 2-.9 2-2s-.9-2-2-2-2 .9-2 2c0 1 .9 2 2 2zM14.2 13.7l-2.8-6.8c-.2-.6-.7-1-1.1-1.1H4.9h-.1c-.4 0-1 .5-1.3 1.2L.7 13.8c-.3.8-.2 1.6.3 1.8.2.1.4 0 .4-.2L4.3 9l.4 7.2-.2 11.1c0 .4.3.7.7.7H6c.4 0 .7-.3.7-.7l.7-11.2h.3l.7 11.2c-.1.4.3.7.6.7h.8c.4 0 .7-.3.7-.7l-.2-11.1.4-7 2.8 6.3c.1.2.3.2.4.2.5-.3.7-1.2.3-2z"/></svg><svg id="plus" viewBox="-10 -10 56 56" width="56" height="56" x="276" y="98" xmlns="http://www.w3.org/2000/svg"><style>.qst0{fill:#102d69}.qst1{fill:#fff}</style><circle id="qXMLID_539_" class="qst0" cx="18" cy="17.9" r="16"/><path id="qXMLID_536_" class="qst1" d="M16.9 12.7h2.4v10.2h-2.4z"/><path id="qXMLID_512_" class="qst1" d="M12.9 16.6h10.2V19H12.9z"/></svg><svg id="povecalo1" viewBox="-10 -10 52 52" width="52" height="52" x="272" y="154" xmlns="http://www.w3.org/2000/svg"><style>.rst0{fill:#fff}</style><path id="rXMLID_48_" class="rst0" d="M31.7 26.8l-5.6-5.6c3.1-5.4 2.4-12.4-2.2-17-5.5-5.5-14.4-5.5-19.8 0-5.5 5.5-5.5 14.4 0 19.8 4.7 4.7 12 5.4 17.4 1.9l5.5 5.5c.4.4 1.1.4 1.5 0l3.2-3.2c.4-.3.4-1 0-1.4zm-23-7.3c-2.9-2.9-2.9-7.6 0-10.6 2.9-2.9 7.6-2.9 10.6 0 2.9 2.9 2.9 7.6 0 10.6-2.9 2.9-7.7 2.9-10.6 0z"/></svg><svg id="print" viewBox="-10 -10 52 52" width="52" height="52" x="324" y="154" xmlns="http://www.w3.org/2000/svg"><style>.sst0{fill:#010101}.sst1{fill:#fff}</style><path id="sXMLID_769_" class="sst0" d="M30.1 8H25V2H7v6H2.6C1.2 8 0 9 0 10.4v12C0 23.8 1.2 24 2.6 24H7v7h18v-7h5.1c1.4 0 1.9-.2 1.9-1.6v-12C32 9 31.4 8 30.1 8zM8 3h16v5H8V3zm16 27H8v-6h16v6z"/><path id="sXMLID_765_" class="sst1" d="M8 3h16v5H8z"/><path id="sXMLID_764_" class="sst1" d="M8 17h16v13H8z"/><path id="sXMLID_773_" class="sst0" d="M10 20h12v1H10z"/><path id="sXMLID_772_" class="sst0" d="M10 22h12v2H10z"/><path id="sXMLID_771_" class="sst0" d="M10 25h12v2H10z"/><path id="sXMLID_763_" class="sst1" d="M6.2 14.9c-.9 0-1.7-.8-1.7-1.7 0-.9.8-1.7 1.7-1.7.9 0 1.7.8 1.7 1.7 0 1-.8 1.7-1.7 1.7z"/></svg><svg id="sn-facebook" viewBox="-10 -10 36 36" width="36" height="36" x="464" y="206" xmlns="http://www.w3.org/2000/svg"><style>.tst0{fill:#102d69}</style><path id="tXMLID_678_" class="tst0" d="M15 0H.7C.2 0 0 .2 0 .7V15c0 .5.2 1 .7 1H8v-6H6V7h2V5.5c0-2.1 1.3-3.2 3.1-3.2.9 0 1.9 0 1.9.1V5h-.9c-1 0-1.1 0-1.1.7V7h2.3l-.3 3h-2v6h4c.5 0 1-.5 1-1V.7c0-.5-.6-.7-1-.7z"/></svg><svg id="sn-instagram" viewBox="-10 -10 36 36" width="36" height="36" x="500" y="206" xmlns="http://www.w3.org/2000/svg"><style>.ust0{fill:#102d69}</style><g id="uXMLID_661_"><path id="uXMLID_670_" class="ust0" d="M8 1.4h3.2c.8 0 1.2.2 1.5.3.4.1.6.3.9.6.3.3.5.5.6.9.1.3.2.7.3 1.5v6.4c0 .8-.2 1.2-.3 1.5-.1.4-.3.6-.6.9-.3.3-.5.5-.9.6-.3.1-.7.2-1.5.3H4.8c-.8 0-1.2-.2-1.5-.3-.4-.1-.6-.3-.9-.6-.3-.3-.5-.5-.6-.9-.1-.3-.2-.7-.3-1.5V4.7c0-.8.2-1.2.3-1.5.1-.4.3-.6.6-.9.3-.3.5-.5.9-.6.3 0 .7-.2 1.5-.2.8-.1 1.1-.1 3.2-.1M8 0H4.7c-.9 0-1.4.2-1.9.4s-1 .5-1.4.9c-.5.5-.8.9-1 1.5-.2.5-.3 1.1-.4 1.9v6.6c0 .9.2 1.4.4 1.9s.5 1 .9 1.4c.4.4.9.7 1.4.9.5.2 1.1.3 1.9.4h6.6c.9 0 1.4-.2 1.9-.4s1-.5 1.4-.9c.4-.4.7-.9.9-1.4.2-.5.3-1.1.4-1.9V4.7c0-.9-.2-1.4-.4-1.9s-.5-1-.9-1.4c-.4-.4-.9-.7-1.4-.9-.5-.2-1.1-.3-1.9-.4-.8-.1-1-.1-3.2-.1z"/><path id="uXMLID_664_" class="ust0" d="M8 3.9C5.7 3.9 3.9 5.7 3.9 8s1.8 4.1 4.1 4.1 4.1-1.8 4.1-4.1S10.3 3.9 8 3.9zm0 6.8c-1.5 0-2.7-1.2-2.7-2.7 0-1.5 1.2-2.7 2.7-2.7 1.5 0 2.7 1.2 2.7 2.7 0 1.5-1.2 2.7-2.7 2.7z"/><circle id="uXMLID_646_" class="ust0" cx="12.3" cy="3.7" r="1"/></g></svg><svg id="sn-youtube" viewBox="-10 -10 36 36" width="36" height="36" x="220" y="256" xmlns="http://www.w3.org/2000/svg"><style>.vst0{fill:#102d69}</style><g id="vLozenge_1_"><g id="vXMLID_30_"><path id="vXMLID_31_" class="vst0" d="M15.8 5s-.2-1.1-.6-1.6c-.6-.6-1.3-.6-1.6-.7-2.2-.1-5.6-.1-5.6-.1s-3.4 0-5.6.2c-.3 0-1 0-1.6.7C.3 3.9.2 5 .2 5S0 6.3 0 7.6v1.2c0 1.3.2 2.6.2 2.6s.2 1.1.6 1.6c.6.6 1.4.6 1.8.7 1.2.1 5.4.1 5.4.1s3.4 0 5.6-.2c.3 0 1 0 1.6-.7.5-.5.6-1.6.6-1.6s.2-1.2.2-2.5V7.6c0-1.3-.2-2.6-.2-2.6zm-9.5 5.3V5.8L10.7 8l-4.4 2.3z"/></g></g></svg><svg version="1.1" id="sorry" x="256" y="256" viewBox="-10 -10 34 34" xml:space="preserve" width="34" height="34" xmlns="http://www.w3.org/2000/svg"><style>.wst0{fill:#ffcb00}.wst1{fill:#6d6e71}</style><circle class="wst0" cx="7" cy="7" r="7"/><path class="wst1" d="M7 9.3c1.6 0 3.1.6 4.3 1.6-.9-1.5-2.5-2.5-4.3-2.5-1.8 0-3.4 1-4.3 2.5 1.2-1 2.7-1.6 4.3-1.6z"/><circle class="wst1" cx="4.9" cy="5" r="1.2"/><circle class="wst1" cx="9.1" cy="5" r="1.2"/></svg><svg version="1.1" id="strelica-select" x="270" y="206" viewBox="-10 -10 44 44" xml:space="preserve" width="44" height="44" xmlns="http://www.w3.org/2000/svg"><style>.xst0{fill:#fff}</style><path class="xst0" d="M12 20L24 8H0z"/></svg></svg>