<?xml version="1.0" encoding="utf-8"?><svg width="536" height="250" viewBox="0 0 536 250" xmlns="http://www.w3.org/2000/svg" xmlns:xlink="http://www.w3.org/1999/xlink"><svg id="brod-bijeli" viewBox="-10 -10 80 44" width="80" height="44" y="98" xmlns="http://www.w3.org/2000/svg"><style>.ast0{clip-path:url(#aXMLID_167_);fill:#fff}</style><g id="aXMLID_113_"><defs><path id="aXMLID_105_" d="M.5.3h59v23.4H.5z"/></defs><clipPath id="aXMLID_167_"><use xlink:href="#aXMLID_105_" overflow="visible"/></clipPath><path id="aXMLID_115_" class="ast0" d="M48 8.6c-.8 0-1.5-.7-1.5-1.6 0-.9.7-1.6 1.5-1.6s1.5.7 1.5 1.6c0 .9-.6 1.6-1.5 1.6m-6.4 0c-.8 0-1.5-.7-1.5-1.6 0-.9.7-1.6 1.5-1.6s1.5.7 1.5 1.6c0 .9-.6 1.6-1.5 1.6m-5.9 0c-.8 0-1.5-.7-1.5-1.6 0-.9.7-1.6 1.5-1.6s1.5.7 1.5 1.6c0 .9-.7 1.6-1.5 1.6m-6.3 0c-.8 0-1.5-.7-1.5-1.6 0-.9.7-1.6 1.5-1.6s1.5.7 1.5 1.6c0 .9-.7 1.6-1.5 1.6m-6.5 0H16l1.7-5.2h5.2v5.2zm36.6 2.5l-6.6-.1V3.3H33.8v-3h-1.9v2.2H17.1l-2.6 7.9-14-.2 12.4 13.6H55c0-.1 4.6-2.1 4.5-12.7"/></g></svg><svg id="bus-bijeli" viewBox="-10 -10 80 52" width="80" height="52" y="142" xmlns="http://www.w3.org/2000/svg"><style>.bst0{clip-path:url(#bSVGID_2_);fill:#fff}</style><defs><path id="bSVGID_1_" d="M.3.3h59.4v31.4H.3z"/></defs><clipPath id="bSVGID_2_"><use xlink:href="#bSVGID_1_" overflow="visible"/></clipPath><path class="bst0" d="M54.1 12.8c0 1-.8 1.7-1.7 1.7h-5.7c-.9 0-1.7-.8-1.7-1.7V6.3c0-.9.8-1.7 1.7-1.7h5.7c.9 0 1.7.8 1.7 1.7v6.5zm-9.7 0c0 1-.8 1.7-1.7 1.7H37c-.9 0-1.7-.8-1.7-1.7V6.3c0-.9.8-1.7 1.7-1.7h5.7c.9 0 1.7.8 1.7 1.7v6.5zm-9.9 0c0 1-.8 1.7-1.7 1.7h-5.7c-.9 0-1.7-.8-1.7-1.7V6.3c0-.9.8-1.7 1.7-1.7h5.7c.9 0 1.7.8 1.7 1.7v6.5zm-10 0c0 1-.8 1.7-1.7 1.7h-5.7c-.9 0-1.7-.8-1.7-1.7V6.3c0-.9.8-1.7 1.7-1.7h5.7c.9 0 1.7.8 1.7 1.7v6.5zm-12.4 4.1c0 1-.8 1.7-1.7 1.7h-5c-.9 0-2.6-.8-2.6-1.7l.9-10.6c0-.9.8-1.7 1.7-1.7h5c.9 0 1.7.8 1.7 1.7v10.6zm45-14.5h-.9v-.9c0-.7-.5-1.2-1.2-1.2H31.5c-.7 0-1.2.5-1.2 1.2v.9H5.6C4.2 2.4 3 3.5 2.1 5L.3 21.2c.9 1.5 3.9 5.5 5.3 5.5h5c0-3.2 2.5-5.8 5.7-5.8s5.7 2.6 5.7 5.8h22.9c0-3.2 2.5-5.8 5.7-5.8 3.1 0 5.7 2.6 5.7 5.8h1c1.4 0 2.6-1.2 2.6-2.7V5c-.2-1.5-1.3-2.6-2.8-2.6"/><path class="bst0" d="M16.3 21.6c-2.7 0-4.9 2.3-4.9 5.1s2.2 5.1 4.9 5.1 4.9-2.3 4.9-5.1-2.2-5.1-4.9-5.1m34.2 0c-2.7 0-4.9 2.3-4.9 5.1s2.2 5.1 4.9 5.1 4.9-2.3 4.9-5.1-2.2-5.1-4.9-5.1"/></svg><svg id="check" viewBox="-10 -10 36 36" width="36" height="36" x="80" y="98" xmlns="http://www.w3.org/2000/svg"><style>.cst0{fill:#fff}</style><path id="cXMLID_3_" class="cst0" d="M15.8 3.8l-1.6-1.6c-.3-.3-.6-.4-.9-.1L6.1 9.2 2.7 5.9c-.2-.3-.5-.4-.8-.1L.3 7.4c-.3.3-.4.8-.2 1.1L4 12.3 5.6 14c.3.3.8.1 1-.2l1.6-1.6 7.5-7.5c.4-.3.3-.6.1-.9z"/></svg><svg id="contact-skype" viewBox="-10 -10 52 52" width="52" height="52" x="80" y="142" xmlns="http://www.w3.org/2000/svg"><style>.dst0{fill:#00aff0}.dst1{fill:#fff}</style><path id="dXMLID_6_" class="dst0" d="M13.3 1.3c-.1 0-.1-.1-.2-.1h-.2l.4.1z"/><path id="dXMLID_5_" class="dst0" d="M1.3 13.2v.2c0 .1.1.1.1.2l-.1-.4z"/><path id="dXMLID_4_" class="dst0" d="M30.7 18.8v-.2s-.1-.1-.1-.2l.1.4z"/><path id="dXMLID_3_" class="dst0" d="M18.5 30.6c.1 0 .1.1.2.1h.2l-.4-.1z"/><path class="dst0" d="M30.8 18.6v.2l-.1-.3s0 .1.1.1c.2-.9.2-1.8.2-2.7 0-2-.4-4-1.2-5.8-.8-1.8-1.8-3.4-3.2-4.8-1.4-1.4-3-2.5-4.8-3.2C20 1.3 18 .9 16 .9c-1 0-1.9.1-2.8.3.1 0 .1.1.2.1h-.3.2C12 .6 10.6.3 9.1.3c-2.4 0-4.6.9-6.3 2.6C1 4.4.1 6.7.1 9c0 1.5.4 3 1.1 4.3v-.2l.1.3s-.1-.1-.1-.2c-.1 1-.2 1.9-.2 2.7 0 2 .4 4 1.2 5.8.8 1.8 1.8 3.4 3.2 4.8s3 2.5 4.8 3.2c1.8.8 3.8 1.2 5.8 1.2.9 0 1.8-.1 2.6-.2-.1 0-.1-.1-.2-.1l.3.1h-.2c1.3.8 2.8 1.2 4.4 1.2 2.4 0 4.6-.9 6.3-2.6 1.7-1.7 2.6-3.9 2.6-6.3.1-1.5-.3-3-1-4.4z"/><path class="dst1" d="M16.1 25.1c-5.3 0-7.7-2.6-7.7-4.6 0-1 .7-1.7 1.8-1.7 2.3 0 1.7 3.3 5.9 3.3 2.2 0 3.4-1.2 3.4-2.4 0-.7-.4-1.5-1.8-1.9L13 16.6c-3.8-1-4.5-3-4.5-5 0-4 3.8-5.5 7.4-5.5 3.3 0 7.1 1.8 7.1 4.2 0 1-.9 1.6-1.9 1.6-1.9 0-1.6-2.7-5.5-2.7-1.9 0-3 .9-3 2.1 0 1.3 1.5 1.7 2.9 2l3.5.8c3.8.9 4.8 3.1 4.8 5.2-.1 3.4-2.7 5.8-7.7 5.8z"/></svg><svg id="contact-viber" viewBox="-10 -10 52 52" width="52" height="52" x="132" y="142" xmlns="http://www.w3.org/2000/svg"><style>.est0{fill:#7b519d}.est1{fill:#fff}</style><path id="eXMLID_5_" class="est0" d="M4 0h24c2.2 0 4 1.8 4 4v24c0 2.2-1.8 4-4 4H4c-2.2 0-4-1.8-4-4V4c0-2.2 1.8-4 4-4z"/><g id="eXMLID_7_"><path id="eXMLID_10_" class="est1" d="M26.4 21.6c-.8-.6-1.6-1.2-2.4-1.7-1.6-1.1-3.1-1.2-4.3.6-.7 1-1.6 1.1-2.6.6-2.7-1.2-4.8-3.1-6-5.9-.5-1.2-.5-2.3.7-3.2.7-.5 1.3-1 1.3-2 0-1.2-3.2-5.6-4.4-6-.5-.2-1-.2-1.5 0-2.9 1-4.1 3.4-3 6.2 3.4 8.5 9.5 14.4 17.9 18 .5.2 1 .3 1.3.4 1.9 0 4.1-1.8 4.8-3.6.5-1.9-.8-2.6-1.8-3.4zM17 4.8c6.1.9 8.9 3.8 9.7 10 .1.6-.1 1.4.7 1.4.8 0 .6-.8.7-1.4.1-5.8-5-11.2-10.8-11.4-.4.1-1.4-.3-1.4.7-.2.8.6.7 1.1.7z"/><path id="eXMLID_2_" class="est1" d="M18.2 6.5c-.6-.1-1.4-.3-1.5.5-.1.9.7.8 1.3.9 3.8.8 5.1 2.2 5.7 6 .1.5-.1 1.4.8 1.3.7-.1.4-.8.5-1.3 0-3.7-3-6.9-6.8-7.4z"/><path id="eXMLID_1_" class="est1" d="M18.5 9.5c-.4 0-.8.1-.9.5-.2.6.2.8.7.9 1.5.2 2.4 1.2 2.5 2.7 0 .4.3.8.7.7.6-.1.6-.6.6-1 .1-1.9-1.9-3.9-3.6-3.8z"/></g></svg><svg id="contact-whatsup" viewBox="-10 -10 52 52" width="52" height="52" x="184" y="142" xmlns="http://www.w3.org/2000/svg"><style>.fst0{fill:#25d366}.fst1{fill-rule:evenodd;clip-rule:evenodd;fill:#fff}</style><path id="fXMLID_515_" class="fst0" d="M29.1 32H2.9C1.3 32 0 30.7 0 29.1V2.9C0 1.3 1.3 0 2.9 0h26.2C30.7 0 32 1.3 32 2.9v26.2c0 1.6-1.3 2.9-2.9 2.9z"/><g id="fWA_Logo_1_"><g id="fXMLID_40_"><path id="fXMLID_41_" class="fst1" d="M24.5 7.5C22.2 5.2 19.2 4 16 4 9.5 4 4.1 9.3 4.1 15.9c0 2.1.5 4.2 1.6 6L4 28l6.3-1.7c1.7.9 3.7 1.5 5.7 1.5 6.6 0 11.9-5.3 11.9-11.9.1-3.2-1.2-6.2-3.4-8.4zm-8.4 18.3c-1.8 0-3.5-.5-5-1.4l-.4-.2-3.7 1 1-3.7-.2-.4c-1-1.6-1.5-3.4-1.5-5.3 0-5.5 4.4-9.9 9.9-9.9 2.6 0 5.1 1 7 2.9 1.9 1.9 2.9 4.4 2.9 7-.1 5.6-4.6 10-10 10zm5.4-7.4c-.3-.1-1.8-.9-2-1-.3-.1-.5-.1-.7.1-.2.3-.8 1-.9 1.2-.2.2-.3.2-.6.1s-1.3-.5-2.4-1.5c-.9-.8-1.5-1.8-1.7-2.1-.2-.3 0-.5.1-.6.1-.1.3-.3.4-.5s.2-.3.3-.5c.1-.2 0-.4 0-.5-.1-.1-.7-1.6-.9-2.2-.2-.6-.5-.5-.7-.5h-.6c-.2 0-.5.1-.8.4-.3.3-1 1-1 2.5s1.1 2.9 1.2 3.1c.1.2 2.1 3.2 5.1 4.5.7.3 1.3.5 1.7.6.7.2 1.4.2 1.9.1.6-.1 1.8-.7 2-1.4.2-.7.2-1.3.2-1.4s-.3-.3-.6-.4z"/></g></g></svg><svg id="croatiaexcursion-logo" viewBox="-10 -10 536 98" width="536" height="98" xmlns="http://www.w3.org/2000/svg"><style>.gst0{fill:#ffcb00}.gst1{fill:#102d69}.gst2{fill:#0069b3}</style><path id="gXMLID_37_" class="gst0" d="M0 0h516v78H0z"/><g id="gXMLID_274_"><path id="gXMLID_275_" class="gst1" d="M55.2 53.6C54 54.2 51 55 47.3 55 36.6 55 31 48.2 31 39.4 31 28.9 38.6 23 48 23c3.6 0 6.4.7 7.6 1.3l-1.5 5.6c-1.4-.6-3.4-1.1-5.9-1.1-5.5 0-9.8 3.4-9.8 10.3 0 6.2 3.7 10.1 9.9 10.1 2.2 0 4.5-.4 5.9-1l1 5.4z"/><path id="gXMLID_277_" class="gst1" d="M58.5 39.4c0-3.3 0-5.5-.2-7.4h6l.3 4.2h.2c1.2-3.3 3.9-4.7 6.1-4.7.6 0 1 0 1.5.1v6.6c-.6-.1-1.1-.2-1.9-.2-2.6 0-4.3 1.3-4.8 3.5-.1.5-.1 1-.1 1.6v11.4h-7V39.4z"/><path id="gXMLID_279_" class="gst1" d="M85.8 55c-6.6 0-11.6-4.3-11.6-11.6S79 31.5 86.3 31.5c6.9 0 11.5 4.7 11.5 11.5-.1 8.2-5.9 12-12 12zm.2-5c2.8 0 4.5-2.7 4.5-6.8 0-3.3-1.3-6.7-4.5-6.7-3.3 0-4.6 3.4-4.6 6.8 0 3.8 1.6 6.7 4.6 6.7z"/><path id="gXMLID_282_" class="gst1" d="M120.3 49.1c0 2.1.1 4.2.4 5.4h-6.3l-.4-2.3h-.1c-1.5 1.8-3.8 2.8-6.4 2.8-4.6 0-7.3-3.3-7.3-6.9 0-5.8 5.2-8.6 13.2-8.6v-.3c0-1.2-.6-2.9-4.1-2.9-2.3 0-4.7.8-6.2 1.7l-1.3-4.5c1.6-.9 4.6-2 8.7-2 7.5 0 9.8 4.4 9.8 9.7v7.9zm-6.8-5.2c-3.7 0-6.5.9-6.5 3.5 0 1.8 1.2 2.7 2.8 2.7 1.7 0 3.2-1.1 3.6-2.6.1-.4.1-.8.1-1.2v-2.4z"/><path id="gXMLID_285_" class="gst1" d="M132.9 25.9V32h5v5.2h-5v8.1c0 2.7.7 4 2.8 4 1 0 1.4 0 2.1-.2v5.3c-.9.3-2.6.6-4.5.6-2.3 0-4.1-.8-5.3-1.9-1.3-1.3-1.9-3.5-1.9-6.7v-9.2h-3V32h3v-4.2l6.8-1.9z"/><path id="gXMLID_287_" class="gst1" d="M145.2 29.2c-2.2 0-3.6-1.6-3.6-3.5 0-2 1.5-3.5 3.7-3.5s3.6 1.5 3.7 3.5c0 2-1.5 3.5-3.8 3.5zm-3.4 25.3V32h7v22.5h-7z"/><path id="gXMLID_290_" class="gst1" d="M172.6 49.1c0 2.1.1 4.2.4 5.4h-6.3l-.4-2.3h-.1c-1.5 1.8-3.8 2.8-6.4 2.8-4.6 0-7.3-3.3-7.3-6.9 0-5.8 5.2-8.6 13.2-8.6v-.3c0-1.2-.6-2.9-4.1-2.9-2.3 0-4.7.8-6.2 1.7l-1.3-4.5c1.6-.9 4.6-2 8.7-2 7.5 0 9.8 4.4 9.8 9.7v7.9zm-6.8-5.2c-3.7 0-6.5.9-6.5 3.5 0 1.8 1.2 2.7 2.8 2.7 1.7 0 3.2-1.1 3.6-2.6.1-.4.1-.8.1-1.2v-2.4z"/><path id="gXMLID_293_" class="gst1" d="M196.3 41.4h-11.4v7.4h12.7v5.8h-19.7v-31H197v5.8h-12.1v6.4h11.4v5.6z"/><path id="gXMLID_295_" class="gst1" d="M207.7 32l2.2 3.8c.6 1.1 1.2 2.3 1.8 3.4h.1c.6-1.2 1.2-2.3 1.7-3.5l2-3.6h7.6l-7.4 10.7 7.5 11.8h-7.9l-2.3-4c-.6-1.1-1.2-2.3-1.7-3.5h-.1c-.6 1.2-1.1 2.3-1.7 3.5l-2.1 4h-7.7l7.6-11.5-7.5-11h7.9z"/><path id="gXMLID_297_" class="gst1" d="M241.9 53.9c-1.2.6-3.6 1.1-6.3 1.1-7.3 0-11.9-4.5-11.9-11.5 0-6.5 4.5-11.9 12.9-11.9 1.8 0 3.9.3 5.3.9l-1.1 5.2c-.8-.4-2.1-.7-3.9-.7-3.7 0-6.1 2.6-6 6.3 0 4.1 2.8 6.3 6.2 6.3 1.7 0 2.9-.3 4-.7l.8 5z"/><path id="gXMLID_299_" class="gst1" d="M266.4 47.3c0 2.9.1 5.3.2 7.2h-6.1l-.3-3.2h-.2c-.9 1.4-3 3.7-7 3.7-4.6 0-7.9-2.9-7.9-9.8V32h7v12.1c0 3.3 1.1 5.2 3.5 5.2 1.9 0 3.1-1.3 3.5-2.4.2-.4.3-.9.3-1.5V32h7v15.3z"/><path id="gXMLID_301_" class="gst1" d="M271.5 39.4c0-3.3 0-5.5-.2-7.4h6l.3 4.2h.2c1.2-3.3 3.9-4.7 6.1-4.7.6 0 1 0 1.5.1v6.6c-.6-.1-1.1-.2-1.9-.2-2.6 0-4.3 1.3-4.8 3.5-.1.5-.1 1-.1 1.6v11.4h-7V39.4z"/><path id="gXMLID_303_" class="gst1" d="M288.6 48.4c1.3.8 4 1.7 6 1.7 2.1 0 3-.7 3-1.8s-.7-1.7-3.3-2.6c-4.7-1.6-6.5-4.1-6.4-6.7 0-4.2 3.6-7.4 9.2-7.4 2.6 0 4.9.6 6.3 1.3l-1.2 4.8c-1-.5-3-1.2-4.9-1.2-1.7 0-2.7.7-2.7 1.8s.9 1.7 3.6 2.6c4.3 1.5 6 3.6 6.1 6.9 0 4.2-3.3 7.3-9.7 7.3-2.9 0-5.6-.7-7.3-1.6l1.3-5.1z"/><path id="gXMLID_305_" class="gst1" d="M311.5 29.2c-2.2 0-3.6-1.6-3.6-3.5 0-2 1.5-3.5 3.7-3.5s3.6 1.5 3.7 3.5c0 2-1.4 3.5-3.8 3.5zm-3.4 25.3V32h7v22.5h-7z"/><path id="gXMLID_308_" class="gst1" d="M330.5 55c-6.6 0-11.6-4.3-11.6-11.6s4.8-11.9 12.1-11.9c6.9 0 11.5 4.7 11.5 11.5-.2 8.2-6 12-12 12zm.2-5c2.8 0 4.5-2.7 4.5-6.8 0-3.3-1.3-6.7-4.5-6.7-3.3 0-4.6 3.4-4.6 6.8 0 3.8 1.6 6.7 4.6 6.7z"/><path id="gXMLID_311_" class="gst1" d="M346.2 39.2c0-2.8-.1-5.2-.2-7.2h6.1l.3 3.1h.1c.9-1.5 3.2-3.6 6.9-3.6 4.6 0 8.1 3.1 8.1 9.7v13.3h-7V42c0-2.9-1-4.9-3.5-4.9-1.9 0-3.1 1.3-3.6 2.6-.2.5-.2 1.1-.2 1.7v13h-7V39.2z"/><path id="gXMLID_313_" class="gst1" d="M372.5 48.4c1.3.8 4 1.7 6 1.7 2.1 0 3-.7 3-1.8s-.7-1.7-3.3-2.6c-4.7-1.6-6.5-4.1-6.4-6.7 0-4.2 3.6-7.4 9.2-7.4 2.6 0 4.9.6 6.3 1.3l-1.2 4.8c-1-.5-3-1.2-4.9-1.2-1.7 0-2.7.7-2.7 1.8s.9 1.7 3.6 2.6c4.3 1.5 6 3.6 6.1 6.9 0 4.2-3.3 7.3-9.7 7.3-2.9 0-5.6-.7-7.3-1.6l1.3-5.1z"/><path id="gXMLID_315_" class="gst2" d="M395.8 55c-2.3 0-4-1.8-4-4.2 0-2.5 1.7-4.3 4.1-4.3 2.4 0 4 1.7 4.1 4.3 0 2.4-1.7 4.2-4.2 4.2z"/><path id="gXMLID_317_" class="gst2" d="M420.6 53.9c-1.2.6-3.6 1.1-6.3 1.1-7.3 0-11.9-4.5-11.9-11.5 0-6.5 4.5-11.9 12.9-11.9 1.8 0 3.9.3 5.3.9l-1.1 5.2c-.8-.4-2.1-.7-3.9-.7-3.7 0-6.1 2.6-6 6.3 0 4.1 2.8 6.3 6.2 6.3 1.7 0 2.9-.3 4-.7l.8 5z"/><path id="gXMLID_319_" class="gst2" d="M434.1 55c-6.6 0-11.6-4.3-11.6-11.6s4.8-11.9 12.1-11.9c6.9 0 11.5 4.7 11.5 11.5-.1 8.2-5.9 12-12 12zm.2-5c2.8 0 4.5-2.7 4.5-6.8 0-3.3-1.3-6.7-4.5-6.7-3.3 0-4.6 3.4-4.6 6.8 0 3.8 1.6 6.7 4.6 6.7z"/><path id="gXMLID_322_" class="gst2" d="M449.8 39.2c0-2.8-.1-5.2-.2-7.2h5.9l.3 3.1h.1c1-1.5 3-3.6 6.8-3.6 2.9 0 5.2 1.5 6.2 3.9h.1c.9-1.2 1.8-2.1 2.9-2.8 1.2-.7 2.6-1.1 4.3-1.1 4.3 0 7.6 3 7.6 9.8v13.2H477V42.3c0-3.3-1.1-5.2-3.3-5.2-1.7 0-2.8 1.1-3.3 2.4-.1.5-.2 1.2-.2 1.7v13.2h-6.8V41.9c0-2.8-1-4.7-3.3-4.7-1.8 0-2.9 1.4-3.3 2.5-.2.6-.3 1.2-.3 1.8v13.1h-6.8V39.2z"/></g></svg><svg id="minus" viewBox="-10 -10 56 56" width="56" height="56" y="194" xmlns="http://www.w3.org/2000/svg"><style>.hst0{fill:#6d6e71}.hst1{fill:#fff}</style><circle id="hXMLID_541_" class="hst0" cx="18" cy="17.9" r="16"/><path id="hXMLID_512_" class="hst1" d="M12.9 16.6h10.2V19H12.9z"/></svg><svg id="plus" viewBox="-10 -10 56 56" width="56" height="56" x="56" y="194" xmlns="http://www.w3.org/2000/svg"><style>.ist0{fill:#102d69}.ist1{fill:#fff}</style><circle id="iXMLID_539_" class="ist0" cx="18" cy="17.9" r="16"/><path id="iXMLID_536_" class="ist1" d="M16.9 12.7h2.4v10.2h-2.4z"/><path id="iXMLID_512_" class="ist1" d="M12.9 16.6h10.2V19H12.9z"/></svg><svg id="sn-facebook" viewBox="-10 -10 36 36" width="36" height="36" x="116" y="98" xmlns="http://www.w3.org/2000/svg"><style>.jst0{fill:#102d69}</style><path id="jXMLID_678_" class="jst0" d="M15 0H.7C.2 0 0 .2 0 .7V15c0 .5.2 1 .7 1H8v-6H6V7h2V5.5c0-2.1 1.3-3.2 3.1-3.2.9 0 1.9 0 1.9.1V5h-.9c-1 0-1.1 0-1.1.7V7h2.3l-.3 3h-2v6h4c.5 0 1-.5 1-1V.7c0-.5-.6-.7-1-.7z"/></svg><svg id="sn-instagram" viewBox="-10 -10 36 36" width="36" height="36" x="152" y="98" xmlns="http://www.w3.org/2000/svg"><style>.kst0{fill:#102d69}</style><g id="kXMLID_661_"><path id="kXMLID_670_" class="kst0" d="M8 1.4h3.2c.8 0 1.2.2 1.5.3.4.1.6.3.9.6.3.3.5.5.6.9.1.3.2.7.3 1.5v6.4c0 .8-.2 1.2-.3 1.5-.1.4-.3.6-.6.9-.3.3-.5.5-.9.6-.3.1-.7.2-1.5.3H4.8c-.8 0-1.2-.2-1.5-.3-.4-.1-.6-.3-.9-.6-.3-.3-.5-.5-.6-.9-.1-.3-.2-.7-.3-1.5V4.7c0-.8.2-1.2.3-1.5.1-.4.3-.6.6-.9.3-.3.5-.5.9-.6.3 0 .7-.2 1.5-.2.8-.1 1.1-.1 3.2-.1M8 0H4.7c-.9 0-1.4.2-1.9.4s-1 .5-1.4.9c-.5.5-.8.9-1 1.5-.2.5-.3 1.1-.4 1.9v6.6c0 .9.2 1.4.4 1.9s.5 1 .9 1.4c.4.4.9.7 1.4.9.5.2 1.1.3 1.9.4h6.6c.9 0 1.4-.2 1.9-.4s1-.5 1.4-.9c.4-.4.7-.9.9-1.4.2-.5.3-1.1.4-1.9V4.7c0-.9-.2-1.4-.4-1.9s-.5-1-.9-1.4c-.4-.4-.9-.7-1.4-.9-.5-.2-1.1-.3-1.9-.4-.8-.1-1-.1-3.2-.1z"/><path id="kXMLID_664_" class="kst0" d="M8 3.9C5.7 3.9 3.9 5.7 3.9 8s1.8 4.1 4.1 4.1 4.1-1.8 4.1-4.1S10.3 3.9 8 3.9zm0 6.8c-1.5 0-2.7-1.2-2.7-2.7 0-1.5 1.2-2.7 2.7-2.7 1.5 0 2.7 1.2 2.7 2.7 0 1.5-1.2 2.7-2.7 2.7z"/><circle id="kXMLID_646_" class="kst0" cx="12.3" cy="3.7" r="1"/></g></svg><svg id="sn-youtube" viewBox="-10 -10 36 36" width="36" height="36" x="188" y="98" xmlns="http://www.w3.org/2000/svg"><style>.lst0{fill:#102d69}</style><g id="lLozenge_1_"><g id="lXMLID_30_"><path id="lXMLID_31_" class="lst0" d="M15.8 5s-.2-1.1-.6-1.6c-.6-.6-1.3-.6-1.6-.7-2.2-.1-5.6-.1-5.6-.1s-3.4 0-5.6.2c-.3 0-1 0-1.6.7C.3 3.9.2 5 .2 5S0 6.3 0 7.6v1.2c0 1.3.2 2.6.2 2.6s.2 1.1.6 1.6c.6.6 1.4.6 1.8.7 1.2.1 5.4.1 5.4.1s3.4 0 5.6-.2c.3 0 1 0 1.6-.7.5-.5.6-1.6.6-1.6s.2-1.2.2-2.5V7.6c0-1.3-.2-2.6-.2-2.6zm-9.5 5.3V5.8L10.7 8l-4.4 2.3z"/></g></g></svg></svg>