<?xml version="1.0" encoding="utf-8"?><svg width="112" height="92" viewBox="0 0 112 92" xmlns="http://www.w3.org/2000/svg" xmlns:xlink="http://www.w3.org/1999/xlink"><svg id="check" viewBox="-10 -10 36 36" width="36" height="36" y="56" xmlns="http://www.w3.org/2000/svg"><style>.ast0{fill:#fff}</style><path id="aXMLID_3_" class="ast0" d="M15.8 3.8l-1.6-1.6c-.3-.3-.6-.4-.9-.1L6.1 9.2 2.7 5.9c-.2-.3-.5-.4-.8-.1L.3 7.4c-.3.3-.4.8-.2 1.1L4 12.3 5.6 14c.3.3.8.1 1-.2l1.6-1.6 7.5-7.5c.4-.3.3-.6.1-.9z"/></svg><svg id="minus" viewBox="-10 -10 56 56" width="56" height="56" xmlns="http://www.w3.org/2000/svg"><style>.bst0{fill:#6d6e71}.bst1{fill:#fff}</style><circle id="bXMLID_541_" class="bst0" cx="18" cy="17.9" r="16"/><path id="bXMLID_512_" class="bst1" d="M12.9 16.6h10.2V19H12.9z"/></svg><svg id="plus" viewBox="-10 -10 56 56" width="56" height="56" x="56" xmlns="http://www.w3.org/2000/svg"><style>.cst0{fill:#102d69}.cst1{fill:#fff}</style><circle id="cXMLID_539_" class="cst0" cx="18" cy="17.9" r="16"/><path id="cXMLID_536_" class="cst1" d="M16.9 12.7h2.4v10.2h-2.4z"/><path id="cXMLID_512_" class="cst1" d="M12.9 16.6h10.2V19H12.9z"/></svg></svg>