<svg xmlns="http://www.w3.org/2000/svg" viewBox="0 0 150 150"><radialGradient id="a" cx="114.275" cy="40.304" r="91.185" gradientUnits="userSpaceOnUse"><stop offset=".005" stop-color="#008ad1"/><stop offset="1" stop-color="#004077"/></radialGradient><path d="M72.8 47.7V34.3c26.3 19.8 53-22.4 77.2-1.6V0H0v150h150V46.1c-24.2-20.8-50.9 21.4-77.2 1.6z" fill="url(#a)"/><path d="M72.8 47.7c.1.1 0 .1 0 0zm0-47.7v34.3c26.3 19.8 53-22.4 77.2-1.6V0H72.8z" fill="#e40521"/><path d="M32 86.3h-8.3l7.4-7.4v-3.6H15.8v4H23l-7.6 7.8v3.2h15.9zm16.7 0h-8.6v-1.6h7.6v-4h-7.6v-1.4h8v-4H33.7v15h14.2zm7.6 1.9c0-3.5 0-5.2-.2-6.7h.1c1 2.1 3 6.7 4.1 8.9h7.2V75.3h-5.8v1.5c0 2.5 0 4.9.1 6.1h-.1c-1-2.1-2.3-4.9-3.7-7.6h-7.5v15.1h5.8v-2.2zm14.2-12.9h6.6v15.1h-6.6zm12.9 15h6.5v-11h4.5v-4H78.8v4h4.6zm19.5-5.8h3.5v5.8h6.6v-15h-6.6v5.2h-3.5v-5.2h-6.6v15h6.6zm-82.5 19.9h8.4v-2.9h-8.4v-2.9h8.9v-2.9H16.8v15.1h12.6l.4-2.9h-9.4zm16 6.4h3.7V98.6h5.3v-2.9H31.1v2.9h5.3zm14.7-5.8h3.1c2.2 0 2.8.6 2.8 2.2v.5c0 1.6 0 2.5.3 3.2H61c-.2-.7-.2-1.9-.2-2.9v-.8c0-2.7-1.6-3.3-2.2-3.5 1.5-.5 2.6-1.6 2.6-3.6 0-2.6-2-4.3-5.5-4.3h-8.2v15.1h3.6V105zm0-6.5h3.8c1.7 0 2.5.7 2.5 1.9 0 1.3-.8 1.9-2.5 1.9h-3.8v-3.8zm17.3-2.8l-6.1 15.1h3.8l1.3-3.4h6.7l1.4 3.4h4l-6.4-15.1h-4.7zm0 8.7c1.1-2.9 1.9-5.2 2.3-6.4.4 1.2 1 2.9 2.4 6.4h-4.7zM88 95.7h-6.8v15.1H88c4.4 0 7.9-3 7.9-7.8 0-4-2.8-7.3-7.9-7.3zm-.5 12.2h-2.6v-9.4h2.6c3 0 4.5 1.8 4.5 4.6 0 3.2-1.6 4.8-4.5 4.8zm23.7-9.3v-2.9H98.7v15.1h12.6l.4-2.9h-9.3v-3.5h8.4v-2.9h-8.4v-2.9zm11.2 12.5c2.4 0 3.7-.9 5-2.1l2.1 1.8h4.9l-4.9-4.3 4.7-5.5h-3.9l-2.9 3.6-2.3-2c2.2-1 3-2.2 3-3.6 0-1.7-1.3-3.8-4.6-3.8-3.1 0-4.8 2-4.8 4.1 0 1.2.5 2.2 1.4 3.2-2.4 1.2-3 2.6-3 4.1 0 2.2 1.6 4.5 5.3 4.5zm.4-2.8c-1.4 0-2.2-.9-2.2-2.1 0-.5.1-1.3 1.3-2.1l3.4 3c-.9.9-1.6 1.2-2.5 1.2zm.7-10.6c1.1 0 1.5.8 1.5 1.5 0 .6-.2 1.2-1.7 2-.8-.6-1.3-1.3-1.3-2 0-.8.5-1.5 1.5-1.5zM23.1 121.9c-2.8-.5-3.4-.9-3.4-1.8 0-1 .9-1.5 2.6-1.5 2.5 0 3 1 3.2 1.7h3.7c-.2-1.8-1.6-4.4-6.7-4.4-3.6 0-6.5 1.5-6.5 4.5 0 2 1 3.7 6.2 4.6 3.2.5 3.9 1.1 3.9 2.2 0 1-.7 1.7-3 1.7-2.5 0-3.5-.9-4-2.2h-3.7c.5 2.7 2.6 4.8 7.3 4.8 5.1 0 7.1-2.1 7.1-4.7-.1-2.2-1-3.9-6.7-4.9zm13.2 3h8.4V122h-8.4v-2.9h8.8v-2.9H32.6v15h12.6l.4-2.9h-9.3zm25.3-4.4c0-2.6-2-4.3-5.5-4.3H48v15.1h3.6v-5.8h3.1c2.2 0 2.8.6 2.8 2.2v.5c0 1.6 0 2.5.3 3.2h3.8c-.2-.7-.2-1.9-.2-2.9v-.8c0-2.7-1.6-3.3-2.2-3.5 1.3-.6 2.4-1.8 2.4-3.7zm-6.2 2.2h-3.8v-3.8h3.8c1.7 0 2.5.7 2.5 1.9s-.8 1.9-2.5 1.9zm17.4.4c-1.4 3.9-1.6 4.5-1.9 5.4-.3-1-.7-2.4-1.7-5.1l-2.7-7.2h-4l6.1 15.1H73l6.2-15.1h-3.9l-2.5 6.9zm8.3-6.9h3.7v15.1h-3.7zm14.7 2.5c2.6 0 3.4 1.4 3.7 2.2h3.7c-.4-2.5-2.7-5.1-7.4-5.1-5.3 0-8.2 3.8-8.2 7.9s2.6 7.8 8 7.8c4.7 0 6.8-2.5 7.5-5.1h-3.7c-.6 1.5-1.5 2.3-3.7 2.3-3 0-4.3-2.4-4.3-5.2.1-2.7 1.6-4.8 4.4-4.8zm13.7 6.2h8.4V122h-8.4v-2.9h8.9v-2.9h-12.6v15h12.6l.5-2.9h-9.4zm18-3c-2.8-.5-3.4-.9-3.4-1.8 0-1 .9-1.5 2.6-1.5 2.5 0 3 1 3.2 1.7h3.7c-.2-1.8-1.6-4.4-6.7-4.4-3.6 0-6.5 1.5-6.5 4.5 0 2 1 3.7 6.2 4.6 3.2.5 3.9 1.1 3.9 2.2 0 1-.7 1.7-3 1.7-2.5 0-3.5-.9-4-2.2h-3.7c.5 2.7 2.6 4.8 7.3 4.8 5.1 0 7.1-2.1 7.1-4.7-.1-2.2-1-3.9-6.7-4.9zM72.8 34.3v13.4c26.3 19.8 53-22.4 77.2-1.6V32.7c-24.2-20.8-50.9 21.4-77.2 1.6z" fill="#fff"/></svg>